<?xml version="1.0" standalone="no"?>
<!DOCTYPE svg PUBLIC "-//W3C//DTD SVG 20010904//EN"
 "http://www.w3.org/TR/2001/REC-SVG-20010904/DTD/svg10.dtd">
<svg version="1.0" xmlns="http://www.w3.org/2000/svg"
 width="513.000000pt" height="513.000000pt" viewBox="0 0 513.000000 513.000000"
 preserveAspectRatio="xMidYMid meet">
<metadata>
Created by potrace 1.14, written by Peter Selinger 2001-2017
</metadata>
<g transform="translate(0.000000,513.000000) scale(0.100000,-0.100000)"
fill="#000000" stroke="none">
<path d="M1169 4666 c-2 -2 -35 -6 -74 -10 -58 -5 -132 -18 -225 -41 -39 -9
-171 -61 -225 -87 -205 -103 -379 -274 -490 -483 -59 -111 -115 -290 -130
-414 -4 -30 -9 -63 -11 -75 -4 -17 -8 -881 -5 -973 l1 -23 1281 0 1281 0 -5
508 c-2 279 -7 523 -11 542 -4 19 -11 58 -17 85 -6 28 -13 61 -15 75 -9 45
-66 204 -92 255 -83 166 -221 325 -371 428 -120 83 -351 172 -496 193 -27 3
-59 8 -70 11 -25 5 -321 13 -326 9z"/>
<path d="M2578 2559 c-19 -12 -12 -1048 7 -1079 2 -3 6 -21 9 -40 13 -77 18
-98 46 -181 62 -186 173 -366 288 -469 26 -23 58 -53 72 -65 104 -92 338 -202
500 -234 97 -20 104 -21 165 -28 116 -13 371 -6 455 12 14 3 39 8 55 10 117
21 307 95 410 160 291 184 458 455 530 860 4 22 10 268 12 548 4 486 4 507
-14 508 -133 4 -2528 2 -2535 -2z"/>
</g>
</svg>
