<?xml version="1.0" encoding="utf-8"?>
<!-- Generator: Adobe Illustrator 24.2.1, SVG Export Plug-In . SVG Version: 6.00 Build 0)  -->
<svg version="1.1" id="Laag_1" xmlns="http://www.w3.org/2000/svg" xmlns:xlink="http://www.w3.org/1999/xlink" x="0px" y="0px"
	 viewBox="0 0 40 10.3" style="enable-background:new 0 0 40 10.3;" xml:space="preserve">
<style type="text/css">
	.st0{fill:#FFFFFF;}
</style>
<g>
	<path class="st0" d="M3.3,2.8c1.4,0,2.4,0.6,3.4,1.6l-1.3,1C4.9,4.8,4.2,4.2,3.3,4.2c-0.7,0-1,0.3-1,0.7c0,0.5,0.5,0.6,1.3,0.7h0.2
		c2.2,0.3,3,0.9,3,2.2c0,1.4-1.3,2.4-3.1,2.4c-1.9,0-3-1-3.6-2l1.4-0.9c0.4,0.9,1.4,1.4,2.3,1.4c0.7,0,1.4-0.3,1.4-0.9
		c0-0.5-0.7-0.6-1.5-0.7H3.5c-2.1-0.2-3-0.9-3-2.2S1.7,2.8,3.3,2.8z"/>
	<path class="st0" d="M10.4,2.8c2.1,0,3.7,1.5,3.7,3.7s-1.6,3.7-3.7,3.7S6.8,8.7,6.8,6.5S8.4,2.8,10.4,2.8z M10.4,8.6
		c1.1,0,1.9-0.8,1.9-2.1s-0.8-2.1-1.9-2.1S8.5,5.2,8.5,6.5C8.5,7.7,9.3,8.6,10.4,8.6z"/>
	<path class="st0" d="M22.4,4.6v3.5c0,0.3,0.1,0.4,0.4,0.4h1.1V10H22c-0.8,0-1.4-0.6-1.4-1.3V4.6h-3.2V10h-1.8V4.6h-1.8V3.1h1.8V1.6
		c0-0.8,0.6-1.4,1.4-1.4h1.8v1.5h-1.1c-0.3,0-0.4,0.1-0.4,0.4V3h3.2V0.9h1.8v2.2h1.9v1.5H22.4z"/>
	<path class="st0" d="M26.3,0.2v4h0.2c0.4-0.6,1-1.3,2.4-1.3c1.8,0,3.2,1.5,3.2,3.6s-1.4,3.6-3.2,3.6c-1.4,0-2-0.6-2.4-1.3h-0.2V10
		H25V0.2H26.3z M26.3,6.6c0,1.5,0.8,2.5,2.2,2.5c1.3,0,2.3-0.9,2.3-2.5s-0.9-2.5-2.3-2.5C27.2,4.1,26.3,5.1,26.3,6.6z"/>
	<path class="st0" d="M33.6,0c0.6,0,1.1,0.5,1.1,1s-0.5,1-1.1,1s-1.1-0.5-1.1-1S33,0,33.6,0z M34.3,10H33V3.2h1.3V10z"/>
	<path class="st0" d="M36.7,3.2V0.8H38v2.4h2v1.2h-2v4.2C38,8.9,38.1,9,38.4,9h1.3v1h-1.8c-0.7,0-1.2-0.5-1.2-1.2V4.3h-1.9V3.2H36.7
		z"/>
</g>
</svg>
