<svg xmlns="http://www.w3.org/2000/svg" width="10.968" height="11.978" viewBox="0 0 10.968 11.978">
  <g id="play-white" transform="translate(-23.686 -22.641)">
    <path id="Path_393" data-name="Path 393" d="M1.459,11.978a1.451,1.451,0,0,1-.737-.2A1.442,1.442,0,0,1,0,10.516V1.462A1.442,1.442,0,0,1,.723.2,1.448,1.448,0,0,1,2.176.188l8.048,4.527a1.46,1.46,0,0,1,0,2.544L2.176,11.789a1.466,1.466,0,0,1-.716.189Zm0-10.855a.355.355,0,0,0-.173.047.337.337,0,0,0-.166.292v9.054a.337.337,0,0,0,.5.294L9.674,6.287a.339.339,0,0,0,0-.588L1.626,1.167A.355.355,0,0,0,1.462,1.123Z" transform="translate(23.686 22.642)" fill="#fff"/>
    <path id="Path_2306" data-name="Path 2306" d="M24.957,23.368l9.5,5.352-9.5,5.409Z" transform="translate(-0.286 -0.163)" fill="#fff"/>
  </g>
</svg>
