<svg xmlns="http://www.w3.org/2000/svg" xmlns:xlink="http://www.w3.org/1999/xlink" width="56" height="56" viewBox="0 0 56 56">
  <defs>
    <linearGradient id="linear-gradient" x1="0.788" y1="0.07" x2="0" y2="1" gradientUnits="objectBoundingBox">
      <stop offset="0" stop-color="#e63a3a"/>
      <stop offset="1" stop-color="#f45d4b"/>
    </linearGradient>
    <linearGradient id="linear-gradient-2" x1="0.822" y1="-0.035" x2="0.178" y2="1.035" xlink:href="#linear-gradient"/>
  </defs>
  <g id="Pixaro_Avatar" data-name="Pixaro Avatar" transform="translate(-361 -4340)">
    <rect id="Rectangle_381" data-name="Rectangle 381" width="56" height="56" rx="4" transform="translate(361 4340)" fill="#fff"/>
    <g id="Group_634" data-name="Group 634" transform="translate(14 14)">
      <g id="Group_632" data-name="Group 632" transform="translate(370.245 4347)">
        <path id="Path_2489" data-name="Path 2489" d="M219.493,195.811c-.023-.089-.05-.181-.077-.268l-.043-.134c-.061-.177-.129-.35-.206-.52v0a6.216,6.216,0,0,0-.306-.583c-.086-.139-.175-.275-.27-.408v0c-.122-.164-.25-.324-.384-.476-.045-.05-.091-.1-.138-.148-.075-.079-.152-.154-.232-.229h0c-.079-.073-.161-.145-.245-.215s-.143-.114-.216-.17c-.123-.093-.252-.181-.383-.263-.088-.055-.177-.107-.268-.159q-.2-.113-.418-.209c-.084-.038-.17-.075-.256-.109s-.175-.066-.263-.1l-.134-.043c-.089-.027-.181-.054-.272-.077a5.741,5.741,0,0,0-2.857,0c-.091.023-.181.05-.27.077l-.136.043c-.088.03-.175.063-.261.1h0c-.086.036-.172.072-.254.109h0c-.045.02-.088.041-.131.061-.129.063-.254.131-.377.2v-.769H208.23v16.094h2.861v-5.42c.123.071.249.139.377.2.043.02.086.041.131.061h0c.082.038.168.073.254.109h0c.086.034.173.066.261.1l.136.043c.089.027.179.054.27.077a5.741,5.741,0,0,0,2.857,0c.091-.023.182-.05.272-.077l.134-.043q.131-.046.263-.1c.086-.034.172-.072.256-.109q.215-.1.418-.209c.091-.052.181-.1.268-.159.131-.082.259-.17.383-.263.073-.055.145-.113.216-.17s.166-.141.245-.215h0c.08-.075.157-.15.232-.229a6.245,6.245,0,0,0,.522-.622s0,0,0,0c.095-.132.186-.27.27-.409a5.821,5.821,0,0,0,.306-.583v0c.077-.17.145-.343.206-.52q.021-.064.043-.134c.027-.088.054-.179.077-.268a5.755,5.755,0,0,0,0-2.861Zm-5.541,4.291a2.861,2.861,0,1,1,2.861-2.861A2.864,2.864,0,0,1,213.952,200.1Z" transform="translate(-208.23 -191.52)" fill="url(#linear-gradient)"/>
      </g>
      <g id="Group_633" data-name="Group 633" transform="translate(359 4338)">
        <path id="Path_2493" data-name="Path 2493" d="M748.149,752.449H726.731a5.361,5.361,0,0,1-5.355-5.355V725.677a5.361,5.361,0,0,1,5.355-5.355h21.418a5.361,5.361,0,0,1,5.355,5.355v21.418A5.361,5.361,0,0,1,748.149,752.449Zm-21.418-29.986a3.217,3.217,0,0,0-3.213,3.213v21.418a3.216,3.216,0,0,0,3.213,3.213h21.418a3.216,3.216,0,0,0,3.213-3.213V725.677a3.216,3.216,0,0,0-3.213-3.213Z" transform="translate(-721.376 -720.322)" fill="url(#linear-gradient-2)"/>
      </g>
    </g>
  </g>
</svg>
