<svg xmlns="http://www.w3.org/2000/svg" width="56" height="56" viewBox="0 0 56 56">
  <g id="Telly_Avatar" data-name="Telly Avatar" transform="translate(-361 -4340)">
    <rect id="Rectangle_381" data-name="Rectangle 381" width="56" height="56" rx="4" transform="translate(361 4340)" fill="#fff"/>
    <g id="Group_632" data-name="Group 632" transform="translate(110.112 4113.316)">
      <g id="BizCon_logo-White" data-name="BizCon logo-White" transform="translate(262.888 238.683)">
        <g id="Group_634" data-name="Group 634" transform="translate(0)">
          <g id="Group_632-2" data-name="Group 632">
            <path id="Path_2491" data-name="Path 2491" d="M266.036,270.684a3.142,3.142,0,0,1-2.229-.955,3.317,3.317,0,0,1-.8-3.184l2.547-5.89a1.36,1.36,0,0,0,0-1.115,18.033,18.033,0,0,1-.955-5.731,15.088,15.088,0,0,1,8.278-13.531,14.438,14.438,0,0,1,6.845-1.592h.8a15.133,15.133,0,0,1,14.327,14.168v.955a14.89,14.89,0,0,1-1.592,6.846,15.089,15.089,0,0,1-13.532,8.278h-2.07a8.1,8.1,0,0,1-3.343-.955,1.752,1.752,0,0,0-1.273,0l-5.89,2.547C266.831,270.524,266.354,270.684,266.036,270.684Zm13.691-28.814a12.86,12.86,0,0,0-5.413,1.273,11.919,11.919,0,0,0-6.527,10.666,14.613,14.613,0,0,0,.8,4.458,3.889,3.889,0,0,1-.159,3.5l-2.07,4.616a.49.49,0,0,0,.637.637l4.616-2.07a5.3,5.3,0,0,1,3.5-.159,13.649,13.649,0,0,0,4.3.8,11.918,11.918,0,0,0,10.666-6.527,12.157,12.157,0,0,0,1.274-5.253h0v-.8a11.762,11.762,0,0,0-11.3-11.144Z" transform="translate(-262.888 -238.683)" fill="#38db97"/>
          </g>
        </g>
      </g>
    </g>
  </g>
</svg>
