<svg xmlns="http://www.w3.org/2000/svg" width="56" height="56" viewBox="0 0 56 56">
  <g id="Relate_Avatar" data-name="Relate Avatar" transform="translate(-361 -4340)">
    <rect id="Rectangle_381" data-name="Rectangle 381" width="56" height="56" rx="4" transform="translate(361 4340)" fill="#364ee9"/>
    <path id="Path_2492" data-name="Path 2492" d="M12.653,32.357V19.538A1.633,1.633,0,0,0,12.4,18.5a1.258,1.258,0,0,0-.9-.347l-1.944-.139V14.262h7.821v3.471a7.185,7.185,0,0,1,2.592-2.985,7.1,7.1,0,0,1,4.049-1.18,9.834,9.834,0,0,1,4.373,1.018v6.9l-4.3.324V19.677q0-.926-.463-1.157a3.012,3.012,0,0,0-1.25-.231,3.883,3.883,0,0,0-3.031,1.319,4.843,4.843,0,0,0-1.18,3.355V33.7l4.026.185v3.656H9.783V34.023l1.527-.139a1.832,1.832,0,0,0,1.018-.393A1.531,1.531,0,0,0,12.653,32.357Z" transform="translate(371.587 4342.432)" fill="#fff"/>
  </g>
</svg>
