<svg xmlns="http://www.w3.org/2000/svg" viewBox="0 0 374.05 49.88"><defs><style>.cls-1{fill:#fff;}</style></defs><g id="Layer_2" data-name="Layer 2"><g id="Layer_1-2" data-name="Layer 1"><path class="cls-1" d="M86,49.46V.45h15.68c15.33,0,24.64,9.8,24.64,24.5S117,49.46,101.68,49.46Zm6.09-5.6h9.59c11.9,0,18.41-7.49,18.41-18.91s-6.51-18.9-18.41-18.9H92.09Z"/><path class="cls-1" d="M165.13,44.21v5.25H162c-4.76,0-6.37-2-6.45-5.53-2.24,3.22-5.81,6-12,6-7.84,0-13.16-3.92-13.16-10.43,0-7.14,5-11.13,14.35-11.13h10.5V25.87c0-4.63-3.29-7.43-8.89-7.43-5,0-8.4,2.38-9.1,6h-5.74c.84-7,6.51-11.14,15.12-11.14,9.1,0,14.36,4.55,14.36,12.89V41.83c0,1.89.7,2.38,2.31,2.38Zm-9.88-11.06H144.19c-5.11,0-8,1.89-8,6,0,3.5,3,5.88,7.77,5.88,7.14,0,11.27-4.13,11.27-10.08Z"/><path class="cls-1" d="M224.55,44.21v5.25H221.4c-4.76,0-6.37-2-6.44-5.53-2.24,3.22-5.81,6-12,6-7.84,0-13.16-3.92-13.16-10.43,0-7.14,5-11.13,14.35-11.13h10.5V25.87c0-4.63-3.29-7.43-8.89-7.43-5,0-8.4,2.38-9.1,6H191c.84-7,6.51-11.14,15.12-11.14,9.1,0,14.35,4.55,14.35,12.89V41.83c0,1.89.7,2.38,2.31,2.38Zm-9.87-11.06H203.62c-5.11,0-8,1.89-8,6,0,3.5,3,5.88,7.77,5.88,7.14,0,11.27-4.13,11.27-10.08Z"/><path class="cls-1" d="M186.35,44.2v5.26h-6.23c-6.86,0-9.31-3-9.31-9.32V19h-6.44V13.75h6.44v-10h5.74v10h9.24V19h-9.24V40.08c0,3,1,4.12,4.13,4.12Z"/><path class="cls-1" d="M239.28,33.43c.49,6.58,5.6,10.92,13.09,10.92,6.58,0,11.27-3,11.27-8.33,0-6.09-6-7.35-13.44-8.61-7.91-1.33-16-3.93-16-13.45C234.17,5.63,241,0,250.9,0c10.92,0,17.64,6.09,18.2,14.91h-6.3c-.7-5.67-5.25-9.38-11.9-9.38-6.37,0-10.64,2.8-10.64,8.05,0,5.88,6,7.07,13.3,8.33,8,1.33,16.17,4,16.17,13.52,0,8.47-7.14,14.42-17.43,14.42-12,0-19-6.79-19.32-16.45Z"/><path class="cls-1" d="M273,31.61c0-10.86,7.28-18.28,17.71-18.28s17.72,7.42,17.72,18.28-7.28,18.27-17.72,18.27S273,42.46,273,31.61Zm29.55,0c0-7.64-4.77-13.17-11.84-13.17S278.91,24,278.91,31.61s4.76,13.16,11.83,13.16S302.58,39.24,302.58,31.61Z"/><path class="cls-1" d="M374.05,44.21v5.25h-6.23c-6.86,0-9.31-3-9.31-9.31V19.35H342.87V40.08c0,3,1.05,4.13,4.13,4.13h5.67v5.25h-6.23c-6.86,0-9.32-3-9.32-9.31V19.35h-9.3c-7.49,0-9.52,6.23-9.52,11.9V49.46h-5.74V13.76h5l.77,5.38c1.68-2.72,4.41-5.38,10.78-5.38h8v-10h5.75v10h15.64v-10h5.74v10h9.24v5.59h-9.24V40.08c0,3,1.05,4.13,4.13,4.13Z"/><path class="cls-1" d="M15.15,0C6.11,0,0,5.76,0,15.24v9.7H30.31v-9.7C30.31,5.76,24.25,0,15.15,0Z"/><path class="cls-1" d="M45.46,49.88c-9.05,0-15.15-5.76-15.15-15.24v-9.7H60.62v9.7C60.62,44.12,54.56,49.88,45.46,49.88Z"/></g></g></svg>